<svg width="100" height="101" viewBox="0 0 100 101" fill="none" xmlns="http://www.w3.org/2000/svg">
<g clip-path="url(#clip0)">
<path d="M45.0139 99.8492C37.311 99.1115 29.5123 96.3451 22.8129 91.9742C17.199 88.3115 15.9313 86.8058 15.9313 83.8009C15.9313 77.7652 22.5677 67.1937 33.9222 55.1423C40.3708 48.2979 49.3532 40.2752 50.3247 40.4925C52.2128 40.9148 67.3107 55.6416 72.9626 62.5742C81.9002 73.5369 86.0091 82.5129 83.9217 86.5147C82.3349 89.5567 72.4888 95.5023 65.2553 97.7864C59.2935 99.669 51.4637 100.467 45.0139 99.8492V99.8492ZM8.34909 77.5255C3.68407 70.3687 1.32715 63.323 0.189214 53.1324C-0.186535 49.7675 -0.0518864 47.8428 1.04244 40.9361C2.40637 32.328 7.30855 22.3695 13.199 16.2408C15.7078 13.6305 15.9318 13.567 18.9899 14.5971C22.7035 15.8482 26.6694 18.5871 32.8198 24.1486L36.4084 27.3935L34.4488 29.8008C25.3523 40.976 15.7496 56.8163 12.1307 66.6164C10.1633 71.9441 9.36974 77.292 10.2163 79.5185C10.7878 81.0218 10.2628 80.4614 8.34909 77.5255ZM90.2346 78.7427C90.6954 76.493 90.1125 72.3612 88.7464 68.194C85.7879 59.1691 75.899 42.3797 66.8184 30.9646L63.9599 27.3711L67.0525 24.5314C71.0905 20.8236 73.8941 18.6035 76.9191 16.7181C79.3062 15.2302 82.7175 13.9132 84.1838 13.9132C85.0878 13.9132 88.2704 17.216 90.8396 20.8205C94.8188 26.403 97.7461 33.1703 99.2293 40.2152C100.188 44.7671 100.267 54.5105 99.3836 59.0512C98.6584 62.7776 97.127 67.6112 95.633 70.8894C94.5136 73.3458 91.7296 78.1163 90.5095 79.6686C89.8823 80.4667 89.8818 80.4649 90.2345 78.7427H90.2346ZM45.8386 12.209C41.6488 10.0813 35.1853 7.79742 31.6148 7.18296C30.3631 6.96755 28.2279 6.84741 26.8698 6.91599C23.9239 7.06475 24.0555 6.9107 28.7814 4.67797C32.7103 2.82173 35.9876 1.73017 40.4366 0.796006C45.4414 -0.254859 54.8486 -0.267191 59.7737 0.770655C65.0932 1.89162 71.3571 4.22264 74.8867 6.39476L75.9358 7.04034L73.5289 6.9188C68.746 6.67727 61.7755 8.60956 54.2918 12.2515C52.0346 13.3501 50.0708 14.2274 49.9279 14.2012C49.785 14.175 47.9448 13.2785 45.8386 12.209V12.209Z" fill="white"/>
</g>
<defs>
<clipPath id="clip0">
<rect width="100" height="100.055" fill="white"/>
</clipPath>
</defs>
</svg>
