<svg width="100" height="100" viewBox="0 0 100 100" fill="none" xmlns="http://www.w3.org/2000/svg">
<path fill-rule="evenodd" clip-rule="evenodd" d="M50 100C77.6142 100 100 77.6142 100 50C100 22.3858 77.6142 0 50 0C22.3858 0 0 22.3858 0 50C0 77.6142 22.3858 100 50 100ZM10 40.0709C10.0019 39.5618 10.2449 39.0672 10.6808 38.7554C27.5606 26.6827 43.5263 22.999 56.7303 23C73.9572 23 86.4804 29.2712 90.1794 31.3642C90.6905 31.6538 90.9913 32.1869 91 32.7489V32.796C90.9971 32.949 90.974 33.104 90.9258 33.257L87.8381 43.128C87.5401 44.0769 86.4621 44.5436 85.5691 44.099C56.0977 29.4502 32.8835 42.7855 32.8835 42.7855C60.0879 38.9681 75.5579 48.4706 79.4633 51.2997C80.0264 51.7068 80.2636 52.4304 80.0573 53.0925L76.555 64.2857C76.3274 65.0151 75.6196 65.4828 74.8569 65.4154C70.2775 65.0103 65.6509 65.2153 61.1197 65.9813C56.8672 66.7001 52.6986 67.9078 48.7035 69.5263C44.804 71.1073 40.7443 72.9184 38.3365 76.5442C37.8881 77.2178 36.8717 77.1283 36.5535 76.3845L35.217 73.2494C34.7786 72.2586 34.1852 70.9167 33.5908 69.5725C32.8949 67.9988 32.1975 66.4218 31.7456 65.401C31.4476 64.7255 31.6415 63.9306 32.2229 63.4736C42.5417 55.3817 53.9531 54.7216 53.9531 54.7216C42.5774 51.6327 24.9995 57.3592 19.9235 59.1693C19.1202 59.4541 18.234 59.073 17.8907 58.2946L10.1379 40.73C10.0463 40.5231 10.0019 40.3057 10 40.0911V40.0709Z" fill="white"/>
</svg>
