<svg width="100" height="100" viewBox="0 0 100 100" fill="none" xmlns="http://www.w3.org/2000/svg">
<path fill-rule="evenodd" clip-rule="evenodd" d="M50 100C77.6142 100 100 77.6142 100 50C100 22.3858 77.6142 0 50 0C22.8144 0 0.696137 21.6963 0.0161133 48.7181L24.6103 58.8895C25.441 58.3407 26.3264 57.8653 27.2713 57.4782C29.4147 56.5911 31.6751 56.1942 33.9278 56.2971L47.8342 36.0027C47.8293 35.9126 47.8293 35.8165 47.8293 35.7205C47.8293 23.7434 57.5122 14 69.4146 14C81.322 14 91 23.7434 91 35.7205C91 47.6965 81.322 57.4487 69.4146 57.4487C69.2537 57.4487 69.0878 57.4438 68.9268 57.4389L49.0293 71.7242C49.0878 73.9295 48.6829 76.1397 47.8147 78.2469C44.4781 86.3084 35.2298 90.1456 27.2088 86.7789C22.3064 84.7255 18.9835 80.4571 17.8996 75.5908L4.10497 69.8726C11.7913 87.5996 29.4475 100 50 100ZM28.5922 83.4366C34.7854 86.0291 41.9103 83.074 44.4927 76.8453C45.7415 73.8364 45.7464 70.504 44.5122 67.4852C43.2781 64.4664 40.9493 62.1043 37.9478 60.8498C34.9708 59.605 31.7844 59.6442 28.9815 60.7126L36.2454 63.7362C40.8103 65.6475 42.9708 70.9205 41.0664 75.5124C39.1678 80.0993 33.9278 82.2752 29.3605 80.364L22.3337 77.4383C23.5781 80.0503 25.7352 82.2409 28.5922 83.4366ZM55.0342 35.7205C55.0342 43.7026 61.4878 50.1959 69.4146 50.1959C77.3463 50.1959 83.8 43.7026 83.8 35.7205C83.8 27.7447 77.3463 21.2495 69.4146 21.2495C61.4878 21.2495 55.0342 27.7447 55.0342 35.7205ZM69.439 24.8235C63.4781 24.8235 58.639 29.6937 58.639 35.6984C58.639 41.7036 63.4781 46.5694 69.439 46.5694C75.4049 46.5694 80.2439 41.7036 80.2439 35.6984C80.2439 29.6937 75.4049 24.8235 69.439 24.8235Z" fill="white"/>
</svg>
