<svg width="24" height="24" viewBox="0 0 24 24" fill="none" xmlns="http://www.w3.org/2000/svg">
<path fill-rule="evenodd" clip-rule="evenodd" d="M12 22C17.5228 22 22 17.5228 22 12C22 6.47715 17.5228 2 12 2C6.47715 2 2 6.47715 2 12C2 17.5228 6.47715 22 12 22ZM4 10.0142C4.00039 9.91237 4.04899 9.81345 4.13616 9.75109C7.51212 7.33653 10.7053 6.59981 13.3461 6.6C16.7914 6.6 19.2961 7.85424 20.0359 8.27283C20.1381 8.33076 20.1983 8.43738 20.2 8.54978V8.55921C20.1994 8.58981 20.1948 8.62079 20.1852 8.6514L19.5676 10.6256C19.508 10.8154 19.2924 10.9087 19.1138 10.8198C13.2195 7.89004 8.57669 10.5571 8.57669 10.5571C14.0176 9.79362 17.1116 11.6941 17.8927 12.26C18.0053 12.3414 18.0527 12.4861 18.0115 12.6185L17.311 14.8571C17.2655 15.003 17.1239 15.0966 16.9714 15.0831C16.0555 15.0021 15.1302 15.0431 14.2239 15.1963C13.3734 15.34 12.5397 15.5816 11.7407 15.9053C10.9608 16.2215 10.1489 16.5837 9.6673 17.3088C9.57762 17.4436 9.37435 17.4257 9.31071 17.2769L9.04341 16.6499C8.95574 16.4518 8.83711 16.1835 8.71827 15.9148C8.57905 15.5999 8.43953 15.2844 8.34912 15.0802C8.28953 14.9451 8.32829 14.7861 8.44459 14.6947C10.5084 13.0764 12.7906 12.9443 12.7906 12.9443C10.5155 12.3265 6.99989 13.4718 5.98469 13.8339C5.82404 13.8908 5.64681 13.8146 5.57815 13.6589L4.02758 10.146C4.00926 10.1046 4.00039 10.0611 4 10.0182V10.0142Z" fill="white"/>
</svg>
