<svg width="100" height="100" viewBox="0 0 100 100" fill="none" xmlns="http://www.w3.org/2000/svg">
<path fill-rule="evenodd" clip-rule="evenodd" d="M50 100C77.6142 100 100 77.6142 100 50C100 22.3858 77.6142 0 50 0C22.3858 0 0 22.3858 0 50C0 77.6142 22.3858 100 50 100ZM83.8972 69.8444C83.8972 69.8444 87.7258 68.4321 89.2885 66.4524C90.8494 64.4727 90.1571 61.5972 84.0099 59.6467C78.5549 57.5703 71.6063 56.8569 65.9315 57.4845C60.2567 58.1158 56.2209 59.55 56.2209 59.55L55.416 59.8237V67.6859L69.3822 62.7467C71.7626 61.8873 75.2569 61.7048 77.1866 62.3416C79.12 62.9766 78.7548 64.1863 76.3762 65.042L55.416 72.5411V80.1169L83.8972 69.8444ZM58.1271 34.1789V53.5525C66.2495 57.49 72.6421 53.5489 72.6421 43.1504C72.6421 32.482 68.9007 27.7471 57.8654 23.9429C53.5262 22.474 45.4546 20.0327 39.9143 19V76.8472L52.9447 81V32.4838C52.9447 30.2104 53.955 28.6923 55.5831 29.216C57.7091 29.8089 58.1271 31.9036 58.1271 34.1789ZM11.5202 64.1042C8.64377 66.2463 9.69406 69.9648 16.0049 71.7493C22.7754 73.9899 29.6458 74.4314 36.0965 73.3732C36.2366 73.3495 36.3806 73.3257 36.5253 73.3017C36.8161 73.2535 37.1101 73.2048 37.383 73.156V66.3521L30.9342 68.7022C28.5556 69.5597 25.0595 69.7404 23.1279 69.1054C21.1981 68.4705 21.5634 67.2589 23.9383 66.4032L37.383 61.5716V53.9667L18.6996 60.6374C18.6996 60.6374 14.1787 62.1263 11.5202 64.1042Z" fill="white"/>
</svg>
