<?xml version="1.0" encoding="UTF-8"?>
<svg fill="#FFFFFF" width="100pt" height="100pt" version="1.1" viewBox="0 0 100 100" xmlns="http://www.w3.org/2000/svg">
 <g fill-rule="evenodd">
  <path d="m49.852 0c12.902 0 23.168 10.266 23.168 22.875 0 12.902-10.266 23.168-23.168 23.168-12.609 0-22.875-10.266-22.875-23.168 0-12.609 10.266-22.875 22.875-22.875z"/>
  <path d="m26.98 53.664h46.043c10.266 0 19.355 5.8633 24.047 14.078 0.87891 1.7578 0.87891 3.5195 0 4.9844-9.6758 16.715-27.566 27.273-47.215 27.273-19.355 0-37.242-10.559-46.922-27.273-0.87891-1.4648-0.87891-3.2266 0-4.9844 4.6914-8.2109 13.781-14.078 24.047-14.078z"/>
 </g>
</svg>
