<svg width="24" height="24" viewBox="0 0 24 24" fill="none" xmlns="http://www.w3.org/2000/svg">
<path fill-rule="evenodd" clip-rule="evenodd" d="M12 22C17.5228 22 22 17.5228 22 12C22 6.47715 17.5228 2 12 2C6.47715 2 2 6.47715 2 12C2 17.5228 6.47715 22 12 22ZM18.7794 15.9689C18.7794 15.9689 19.5452 15.6864 19.8577 15.2905C20.1699 14.8945 20.0314 14.3194 18.802 13.9293C17.711 13.5141 16.3213 13.3714 15.1863 13.4969C14.0513 13.6232 13.2442 13.91 13.2442 13.91L13.0832 13.9647V15.5372L15.8764 14.5493C16.3525 14.3775 17.0514 14.341 17.4373 14.4683C17.824 14.5953 17.751 14.8373 17.2752 15.0084L13.0832 16.5082V18.0234L18.7794 15.9689ZM13.6254 8.83577V12.7105C15.2499 13.498 16.5284 12.7098 16.5284 10.6301C16.5284 8.4964 15.7801 7.54943 13.5731 6.78857C12.7052 6.49481 11.0909 6.00654 9.98285 5.8V17.3694L12.5889 18.2V8.49676C12.5889 8.04207 12.791 7.73846 13.1166 7.84319C13.5418 7.96179 13.6254 8.38072 13.6254 8.83577ZM4.30405 14.8208C3.72875 15.2493 3.93881 15.993 5.20097 16.3499C6.55507 16.798 7.92917 16.8863 9.21931 16.6746C9.24736 16.6699 9.27619 16.6651 9.30517 16.6603C9.36328 16.6507 9.42205 16.6409 9.47661 16.6312V15.2704L8.18683 15.7404C7.71111 15.9119 7.01189 15.9481 6.62558 15.8211C6.23962 15.6941 6.31267 15.4518 6.78766 15.2806L9.47661 14.3143V12.7933L5.73992 14.1275C5.73992 14.1275 4.83573 14.4253 4.30405 14.8208Z" fill="white"/>
</svg>
