<svg width="24" height="24" viewBox="0 0 24 24" fill="none" xmlns="http://www.w3.org/2000/svg">
<path fill-rule="evenodd" clip-rule="evenodd" d="M12.0016 22C17.5253 22 22.0032 17.5228 22.0032 12C22.0032 6.47715 17.5253 2 12.0016 2C6.47787 2 2 6.47715 2 12C2 12.0358 2.00019 12.0715 2.00056 12.1072C2.00308 11.8418 2.01317 11.6772 2.01374 11.6678L2.01377 11.6674L7.68026 13.886C7.83441 13.7896 7.99871 13.7061 8.17405 13.6381C8.57179 13.4822 8.99127 13.4125 9.40929 13.4306L11.9898 9.86534C11.9889 9.8495 11.9889 9.83263 11.9889 9.81576C11.9889 7.71167 13.7858 6 15.9945 6C18.2041 6 20 7.71167 20 9.81576C20 11.9197 18.2041 13.6329 15.9945 13.6329C15.9646 13.6329 15.9338 13.632 15.9039 13.6312L12.2116 16.1407C12.2225 16.5282 12.1474 16.9164 11.9862 17.2866C11.3671 18.7028 9.65089 19.3769 8.16246 18.7855C7.25273 18.4248 6.63611 17.6749 6.43497 16.82L2.55672 15.2981C3.91971 19.2004 7.63368 22 12.0016 22ZM8.41918 18.1983C9.56842 18.6538 10.8906 18.1346 11.3698 17.0404C11.6015 16.5118 11.6024 15.9264 11.3734 15.396C11.1444 14.8657 10.7122 14.4508 10.1553 14.2304C9.60282 14.0117 9.01154 14.0186 8.49141 14.2063L9.83935 14.7374C10.6864 15.0732 11.0874 15.9995 10.734 16.8062C10.3817 17.612 9.40929 17.9943 8.56175 17.6585L7.2578 17.1446C7.48872 17.6034 7.889 17.9883 8.41918 18.1983ZM13.3259 9.81576C13.3259 11.218 14.5235 12.3587 15.9945 12.3587C17.4663 12.3587 18.6639 11.218 18.6639 9.81576C18.6639 8.41461 17.4663 7.27355 15.9945 7.27355C14.5235 7.27355 13.3259 8.41461 13.3259 9.81576ZM15.999 7.90142C14.8928 7.90142 13.9949 8.757 13.9949 9.81188C13.9949 10.8668 14.8928 11.7217 15.999 11.7217C17.1061 11.7217 18.004 10.8668 18.004 9.81188C18.004 8.757 17.1061 7.90142 15.999 7.90142Z" fill="white"/>
</svg>
