<svg width="24" height="24" viewBox="0 0 24 24" fill="none" xmlns="http://www.w3.org/2000/svg">
<path fill-rule="evenodd" clip-rule="evenodd" d="M4.48448 20.3205C5.62977 20.332 6.75682 20.3329 7.11873 20.3328C7.19635 20.3328 7.2703 20.3038 7.32977 20.2539C7.74996 19.9016 9.60698 18.4618 12.5636 17.8488C15.7418 17.1898 18.4805 18.2526 18.4805 18.2526L19.0861 17.2037L19.0861 17.2037L19.6917 16.1548C19.6917 16.1548 19.6798 16.1453 19.6574 16.1264C17.8441 15.4541 16.4095 14.55 15.2643 13.5633C15.7072 14.4346 16.1815 15.1655 16.5848 15.7596C13.8835 15.5627 8.99181 15.4639 4.48448 20.3205ZM13.7874 6.894C13.7072 8.73011 14.0059 10.3225 14.4665 11.6792C15.4101 12.7573 16.639 13.8136 18.2688 14.6637C17.604 13.8279 16.8566 12.6642 16.3835 11.2326C16.321 11.0435 16.264 10.8568 16.2121 10.6728C16.081 10.538 15.9501 10.3977 15.8199 10.2516C14.8134 9.12256 14.1785 7.88925 13.7874 6.894ZM15.8679 9.08136C15.5897 7.2529 15.7797 5.8937 15.8495 5.49739C15.8629 5.42094 15.8511 5.34239 15.8123 5.27517C15.6314 4.96173 15.067 3.98613 14.4845 3C14.2762 3.67539 14.119 4.32638 14.0061 4.9532C14.0206 5.02379 14.0412 5.11802 14.0692 5.2325C14.139 5.51798 14.2542 5.92741 14.4334 6.40953C14.7241 7.19205 15.1779 8.1514 15.8679 9.08136Z" fill="#CDF9FF"/>
<path fill-rule="evenodd" clip-rule="evenodd" d="M10.7283 10.1012C11.2766 9.2651 11.6813 8.47203 12 7.8137C13.1801 10.2516 15.5404 14.5373 22 16.0125C21.4373 15.0149 20.8745 14.0384 20.6935 13.725C20.6547 13.6577 20.5926 13.6082 20.5197 13.5816C20.0045 13.3939 17.8291 12.5056 15.8199 10.2516C13.6601 7.82867 13.2112 4.92549 13.2112 4.92549H12H12H10.7888C10.7888 4.92549 10.7831 4.96245 10.7699 5.03151C11.0859 6.93225 11.0142 8.62123 10.7283 10.1012ZM9.49146 11.727C9.95632 10.3745 10.2615 8.78569 10.1893 6.95279C9.79643 7.93755 9.16682 9.14469 8.18013 10.2516C8.0379 10.4111 7.89484 10.5639 7.75159 10.71C7.70255 10.8819 7.64906 11.0562 7.59079 11.2326C7.11339 12.6773 6.35659 13.8492 5.68727 14.6865C7.31466 13.8451 8.54487 12.7982 9.49146 11.727ZM3.89895 15.4615C3.95392 15.4129 4.02884 15.3449 4.11947 15.2582C4.33178 15.055 4.62877 14.7505 4.95673 14.3543C5.48524 13.7158 6.08439 12.8511 6.54347 11.7987C5.11208 12.9363 3.85565 13.4449 3.48031 13.5816C3.40738 13.6082 3.34527 13.6577 3.30646 13.725C3.12547 14.0384 2.56273 15.0149 2 16.0125C2.67687 15.8579 3.30874 15.6724 3.89895 15.4615Z" fill="#CDF9FF"/>
<path fill-rule="evenodd" clip-rule="evenodd" d="M11.9871 17.9818C11.7999 17.9342 11.6077 17.8897 11.4107 17.8488C9.94508 17.5449 8.57295 17.6072 7.51974 17.7625C9.06406 16.7808 10.5867 16.2453 11.9871 15.9662C13.3875 16.2453 14.9102 16.7807 16.4545 17.7625C15.4013 17.6072 14.0292 17.5449 12.5636 17.8488C12.3665 17.8896 12.1743 17.9342 11.9871 17.9818ZM13.5317 18.478C15.2541 19.1513 16.3362 19.9954 16.6445 20.2539C16.704 20.3038 16.7779 20.3328 16.8555 20.3328C17.2174 20.3329 18.3445 20.332 19.4898 20.3205C19.0029 19.7959 18.5116 19.3291 18.019 18.914C17.9562 18.8936 17.8779 18.8692 17.7856 18.8422C17.5034 18.76 17.0913 18.655 16.5842 18.5691C15.756 18.4287 14.6903 18.3418 13.5317 18.478ZM9.96452 15.7149C8.98328 15.6617 8.10873 15.7072 7.38947 15.7596C8.91068 13.5187 11.4421 9.33177 9.4898 3C8.90723 3.98613 8.34292 4.96173 8.162 5.27517C8.1232 5.34239 8.11136 5.42094 8.12481 5.49739C8.21983 6.03745 8.53821 8.36555 7.5908 11.2326C6.57239 14.3145 4.28262 16.1548 4.28262 16.1548L4.8882 17.2037L4.88821 17.2037L5.49379 18.2526C5.49379 18.2526 5.51933 18.2427 5.56833 18.2254C7.05049 16.9991 8.54366 16.2122 9.96452 15.7149Z" fill="#CDF9FF"/>
</svg>
